<?xml version="1.0" standalone="no"?>
<!DOCTYPE svg PUBLIC "-//W3C//DTD SVG 20010904//EN"
 "http://www.w3.org/TR/2001/REC-SVG-20010904/DTD/svg10.dtd">
<svg version="1.0" xmlns="http://www.w3.org/2000/svg"
 width="1280.000000pt" height="640.000000pt" viewBox="0 0 1280.000000 640.000000"
 preserveAspectRatio="xMidYMid meet">
<metadata>
Created by potrace 1.15, written by Peter Selinger 2001-2017
</metadata>
<g transform="translate(0.000000,640.000000) scale(0.100000,-0.100000)"
fill="#000000" stroke="none">
<path d="M8182 6180 c-69 -43 -91 -108 -126 -380 -14 -107 -35 -241 -45 -297
-15 -79 -18 -110 -10 -133 6 -16 15 -30 19 -30 4 0 18 17 31 38 l22 37 8 -33
c10 -50 23 -58 56 -37 81 52 232 236 293 355 66 130 79 264 35 358 -23 50 -29
54 -116 97 -104 51 -121 53 -167 25z"/>
<path d="M7567 6170 c-202 -79 -197 -228 22 -564 92 -141 233 -394 227 -405
-12 -18 -86 -62 -95 -56 -6 3 -11 17 -11 30 0 34 -41 139 -94 243 -108 208
-240 374 -350 441 -75 45 -162 54 -224 22 -62 -32 -96 -96 -96 -182 0 -102 50
-196 168 -315 124 -123 390 -299 496 -327 25 -6 20 -20 -30 -77 l-30 -35 -21
28 c-12 15 -100 81 -197 148 -98 66 -220 151 -272 189 -118 87 -169 112 -236
118 -63 5 -110 -15 -158 -68 -35 -39 -66 -119 -66 -170 0 -59 30 -129 80 -183
96 -105 245 -160 494 -181 192 -17 133 -29 -219 -46 -266 -13 -353 -37 -389
-108 -68 -135 25 -312 181 -341 148 -29 391 80 571 254 l84 82 -15 29 c-11 22
-12 33 -3 47 9 13 7 24 -7 49 -10 17 -16 32 -15 34 2 1 31 6 66 10 l63 7 -21
-52 c-34 -86 -21 -151 36 -181 46 -25 167 -18 243 13 78 33 91 33 126 5 18
-14 47 -23 81 -26 62 -5 75 -17 159 -142 350 -523 370 -1235 50 -1765 -44 -72
-115 -168 -121 -162 -2 2 5 30 17 63 56 164 73 254 74 399 0 128 -3 148 -29
227 -31 96 -77 178 -100 178 -8 0 -27 -23 -43 -52 -15 -28 -33 -53 -39 -55 -7
-2 -25 20 -42 49 -48 85 -119 164 -224 249 -144 115 -156 109 -97 -46 58 -153
87 -331 61 -372 -4 -7 -36 -13 -71 -15 -82 -4 -89 -14 -74 -103 15 -86 58
-176 119 -248 48 -56 229 -217 245 -217 15 0 39 142 39 238 0 115 -11 188 -47
295 -14 43 -23 80 -20 83 10 11 78 -108 103 -181 39 -115 45 -295 15 -416 -84
-330 -338 -529 -781 -610 -87 -16 -337 -16 -430 0 -147 25 -335 85 -369 116
-12 12 -5 28 42 107 162 272 213 585 147 908 -52 254 -170 473 -353 653 -103
102 -103 102 6 155 134 65 247 87 407 79 114 -6 212 -33 296 -82 60 -35 194
-167 194 -190 0 -20 -5 -19 -99 20 -212 89 -455 -75 -469 -315 -8 -133 46
-261 145 -344 99 -83 252 -105 365 -54 307 141 341 596 66 894 -96 104 -252
188 -410 220 -108 22 -292 15 -396 -15 -96 -28 -190 -71 -263 -121 -32 -22
-67 -40 -77 -40 -28 0 -175 142 -225 218 -50 75 -79 141 -127 287 -62 189
-117 282 -233 392 -57 54 -99 83 -170 118 -51 25 -101 45 -110 45 -26 0 -31
-26 -20 -94 6 -34 9 -63 7 -64 -1 -2 -37 8 -78 22 -146 51 -461 59 -490 13
-21 -33 13 -68 124 -128 76 -40 128 -77 188 -133 45 -43 82 -83 82 -89 0 -5
-18 -27 -40 -47 -33 -30 -40 -44 -40 -73 0 -65 97 -142 230 -181 59 -18 328
-34 373 -22 53 13 32 83 -69 229 -30 42 -50 77 -46 77 16 0 175 -172 223 -240
62 -88 103 -160 95 -167 -3 -3 -45 3 -93 15 -148 36 -232 46 -388 46 -234 0
-443 -50 -682 -164 -144 -68 -252 -134 -576 -348 -456 -302 -662 -392 -897
-392 -80 0 -82 2 -137 121 -129 276 -381 527 -644 641 -154 66 -364 106 -485
92 -69 -8 -88 -25 -81 -72 10 -56 16 -59 155 -65 83 -3 155 -13 207 -26 100
-27 239 -93 342 -162 98 -66 257 -219 335 -323 56 -75 108 -164 108 -186 0
-15 -106 -12 -201 6 -421 80 -768 333 -930 678 -42 91 -77 220 -81 306 l-3 54
68 34 c56 28 79 49 139 120 234 284 326 523 374 973 22 208 16 312 -22 378
-34 59 -158 171 -228 206 -63 31 -107 31 -224 0 -200 -54 -233 -92 -331 -399
-142 -444 -154 -706 -50 -1058 18 -60 42 -117 57 -137 64 -80 72 -95 72 -141
0 -44 25 -216 36 -254 5 -15 3 -18 -10 -13 -21 8 -139 -50 -222 -108 -82 -59
-210 -197 -260 -281 -76 -129 -124 -285 -124 -402 1 -222 140 -429 353 -527
91 -42 156 -55 265 -55 200 0 379 91 457 232 28 49 30 61 30 153 0 108 -12
144 -71 214 -91 109 -270 121 -382 25 -63 -54 -96 -131 -96 -229 -1 -93 17
-147 71 -213 19 -24 32 -46 28 -50 -12 -12 -132 -4 -192 13 -170 49 -309 176
-354 328 -75 244 109 567 417 733 38 20 79 46 90 56 26 23 24 25 76 -90 249
-561 930 -859 1618 -710 185 40 380 116 513 201 32 21 62 37 68 37 14 0 -99
-213 -166 -315 -138 -207 -349 -396 -556 -501 -108 -54 -113 -40 -9 28 97 63
223 183 255 241 12 24 14 38 7 58 -9 23 -21 28 -164 57 -196 40 -266 47 -358
33 -85 -13 -233 -79 -251 -112 -15 -29 -3 -71 37 -129 19 -27 34 -54 34 -59 0
-15 -100 -82 -190 -127 -76 -38 -186 -78 -320 -116 -40 -12 -45 -16 -45 -42 0
-43 34 -62 169 -96 173 -44 290 -56 404 -41 52 7 96 10 100 7 3 -4 -6 -31 -21
-62 -53 -107 -34 -133 81 -114 163 26 323 106 438 217 95 93 157 181 284 401
23 41 44 71 47 68 3 -2 0 -50 -6 -106 -16 -147 -14 -414 5 -539 17 -121 34
-193 70 -303 l26 -78 -21 -55 c-12 -31 -20 -74 -19 -99 2 -42 -2 -49 -55 -105
-105 -109 -147 -250 -96 -315 19 -24 27 -26 93 -26 40 0 75 -3 79 -6 3 -3 -16
-51 -44 -105 -99 -195 -146 -392 -136 -563 6 -106 25 -167 68 -219 80 -97 235
-114 325 -35 59 52 69 80 68 193 -1 86 -8 128 -52 300 -49 194 -92 395 -92
436 0 20 27 35 81 46 l26 5 6 -149 c18 -440 201 -797 397 -770 61 8 126 51
152 100 30 55 31 185 4 267 -55 164 -185 359 -343 516 -51 50 -93 94 -93 97 0
7 100 71 104 66 1 -2 9 -20 16 -39 8 -19 51 -78 95 -131 44 -53 123 -158 175
-235 123 -179 207 -266 274 -283 99 -24 198 27 252 129 29 55 26 170 -7 240
-64 136 -199 236 -444 332 l-100 39 65 -5 c36 -3 133 -25 215 -50 206 -62 269
-76 350 -76 129 0 175 45 183 180 4 68 1 85 -21 132 -41 90 -118 134 -253 145
-137 11 -337 -35 -494 -114 -73 -37 -75 -39 -75 -76 0 -21 -6 -41 -14 -46 -10
-6 -12 -20 -8 -45 6 -40 2 -42 -66 -27 -51 12 -54 17 -30 44 34 36 63 90 63
117 0 39 -35 87 -82 112 -37 20 -59 23 -161 25 -66 1 -120 3 -121 5 -1 2 -12
18 -25 35 -14 21 -36 37 -61 44 -22 7 -47 20 -56 30 -21 24 -78 215 -101 338
-24 137 -24 412 1 546 76 409 346 848 646 1050 29 19 55 34 57 31 3 -2 -25
-46 -61 -97 -90 -124 -129 -196 -168 -309 -30 -89 -32 -104 -33 -230 0 -133
12 -200 38 -200 5 0 30 18 54 41 24 22 49 39 55 37 6 -2 17 -31 24 -64 16 -80
47 -154 100 -244 64 -107 113 -172 127 -167 9 3 12 49 13 163 0 153 9 219 43
306 15 39 27 42 87 17 54 -23 55 -23 74 -3 42 43 46 209 6 321 -23 65 -140
276 -173 313 -8 8 -43 -41 -74 -102 -53 -105 -81 -220 -86 -361 -3 -74 -9
-125 -15 -119 -4 4 -15 42 -24 83 -66 307 124 662 424 796 180 80 527 85 790
12 96 -27 236 -86 256 -107 14 -16 10 -25 -45 -111 -85 -132 -93 -152 -128
-291 -100 -409 -40 -778 179 -1088 53 -76 172 -201 250 -266 l45 -36 -29 -24
c-50 -42 -176 -109 -255 -137 -150 -53 -321 -62 -466 -24 -91 23 -233 97 -297
155 -31 28 -77 83 -102 123 -47 77 -85 171 -73 183 4 4 29 -13 55 -38 58 -57
110 -85 185 -98 112 -21 239 22 321 110 57 61 83 116 95 201 24 176 -49 333
-191 410 -60 32 -68 34 -163 34 -93 0 -104 -2 -167 -34 -195 -98 -304 -327
-268 -565 50 -332 296 -588 627 -652 96 -18 272 -18 360 0 152 32 348 118 442
194 35 29 70 52 77 52 7 0 48 -16 92 -35 43 -19 132 -53 198 -76 273 -95 347
-152 542 -411 153 -203 306 -304 513 -337 95 -16 138 -14 146 5 4 10 -7 43
-25 78 l-31 61 122 6 c123 7 202 25 337 79 102 40 117 58 83 99 -14 16 -41 25
-108 36 -118 21 -185 40 -270 79 -97 45 -102 52 -70 111 33 62 32 81 -6 116
-50 46 -152 73 -258 67 -96 -6 -331 -75 -365 -108 -18 -18 -18 -19 3 -54 12
-19 65 -68 117 -108 53 -40 91 -74 86 -76 -17 -5 -121 52 -233 126 -127 85
-195 144 -185 160 4 7 31 12 64 12 191 0 473 81 661 189 247 141 420 305 676
635 278 359 424 517 598 647 92 69 227 138 283 146 40 5 42 4 145 -99 256
-256 585 -398 918 -398 129 0 267 27 357 69 71 33 80 45 64 86 -17 45 -6 39
39 -22 54 -72 114 -197 107 -220 -3 -10 -19 -27 -36 -38 -41 -27 -71 -74 -113
-180 -81 -203 -110 -350 -110 -555 1 -153 19 -291 67 -506 60 -265 94 -321
231 -385 202 -94 244 -93 396 7 164 108 180 143 187 407 9 389 -40 660 -164
905 -86 169 -180 288 -274 347 -25 15 -41 41 -70 110 -20 50 -51 114 -69 143
-36 61 -36 62 -15 62 26 0 133 110 190 197 109 162 166 341 167 518 1 122 -13
185 -65 294 -105 221 -360 356 -607 322 -201 -28 -377 -143 -456 -297 -27 -53
-30 -68 -30 -154 0 -116 22 -167 103 -241 88 -80 189 -97 297 -50 103 46 155
130 155 252 0 130 -42 213 -143 278 l-59 39 29 16 c47 24 159 39 243 33 283
-22 476 -249 439 -515 -29 -205 -106 -365 -250 -517 -36 -39 -68 -77 -71 -85
-3 -10 -41 22 -114 96 -191 192 -379 296 -639 350 -136 29 -441 26 -585 -5
-353 -76 -652 -244 -899 -508 -100 -107 -100 -107 -80 16 46 286 118 473 267
696 64 95 226 275 237 263 4 -3 -25 -44 -63 -92 -72 -90 -159 -248 -168 -307
-4 -25 -1 -41 13 -57 l18 -23 140 15 c229 25 308 45 410 107 76 46 155 131
155 169 0 33 -36 80 -85 110 -19 12 -35 29 -35 37 0 59 237 286 396 379 32 19
44 32 44 49 0 46 -23 55 -133 55 -169 0 -352 -38 -484 -100 -36 -16 -67 -30
-69 -30 -3 0 -2 29 2 64 8 74 1 111 -21 120 -20 7 -121 -43 -202 -100 -185
-132 -293 -329 -364 -665 -18 -85 -34 -156 -36 -158 -7 -10 -13 11 -38 124
-58 272 -172 543 -305 727 -70 97 -70 97 -70 163 0 39 -6 78 -15 95 -14 26
-13 33 19 102 59 127 69 223 30 303 -24 52 -49 58 -135 34 -39 -11 -73 -18
-76 -15 -2 2 2 39 11 82 35 191 29 374 -20 542 -31 106 -70 177 -128 230 -68
63 -142 76 -229 42z m311 -867 c28 -26 26 -50 -5 -70 -21 -14 -23 -14 -31 8
-5 13 -12 49 -15 79 -7 54 -7 55 11 30 9 -14 28 -35 40 -47z m-214 -127 c20
-23 36 -47 36 -53 0 -5 -11 -20 -26 -33 -21 -21 -27 -22 -35 -10 -27 42 -30
51 -19 65 9 11 9 23 2 45 -15 42 1 37 42 -14z m-165 -247 c17 -6 31 -13 31
-15 0 -9 -24 -54 -29 -54 -3 0 -21 18 -39 40 -29 34 -30 40 -14 40 10 0 33 -5
51 -11z m-1406 -1261 c345 -346 445 -795 270 -1213 -28 -67 -112 -202 -143
-230 -21 -19 -22 -19 -58 0 -57 30 -234 211 -286 293 -62 96 -109 198 -142
307 -25 82 -28 105 -28 260 -1 190 14 269 79 411 49 108 168 274 197 274 5 0
55 -46 111 -102z m3939 -158 c183 -38 357 -116 497 -221 76 -56 148 -125 140
-133 -2 -2 -53 -18 -114 -36 -142 -42 -326 -52 -475 -26 -196 34 -425 131
-580 247 -73 54 -130 113 -130 136 0 16 70 33 235 57 72 11 333 -4 427 -24z
m-5874 -2127 c12 -26 19 -49 17 -51 -3 -3 -23 7 -45 22 -39 26 -40 27 -24 51
9 14 19 25 23 25 4 0 17 -21 29 -47z m-218 -148 c0 -19 -4 -37 -10 -40 -5 -3
-10 -22 -10 -41 0 -48 -15 -42 -34 13 -23 68 -21 90 12 101 36 12 42 7 42 -33z
m-246 -53 c6 -10 -12 -104 -22 -114 -4 -4 -16 17 -27 48 -16 48 -17 57 -4 65
17 11 46 12 53 1z"/>
<path d="M945 6142 c-27 -10 -87 -43 -133 -75 -47 -32 -107 -64 -139 -73 -58
-17 -72 -17 -273 5 -138 15 -273 -19 -350 -87 -35 -31 -43 -45 -47 -82 -6 -59
8 -76 79 -95 150 -39 340 -157 469 -292 107 -113 141 -178 184 -349 45 -175
85 -252 192 -364 82 -86 174 -157 285 -219 91 -52 98 -33 38 117 -92 232 -102
439 -39 797 29 164 33 213 34 360 0 140 -3 179 -18 223 -46 129 -151 180 -282
134z"/>
<path d="M2475 5812 c-16 -11 -47 -37 -67 -60 -73 -81 -122 -205 -228 -576
-28 -98 -62 -208 -76 -244 -57 -151 -176 -328 -288 -426 -65 -57 -78 -82 -57
-115 23 -36 289 9 437 75 132 58 228 137 312 258 66 94 136 152 257 211 132
66 269 98 425 99 69 1 150 -3 181 -7 70 -10 89 4 89 67 0 58 -40 134 -103 193
-70 66 -123 96 -242 133 -200 62 -231 84 -303 207 -61 104 -106 153 -168 182
-55 26 -129 27 -169 3z"/>
<path d="M11171 2841 c-20 -13 -7 -40 50 -106 137 -161 221 -332 263 -535 8
-41 26 -149 40 -240 61 -408 148 -603 287 -640 81 -22 199 36 262 128 55 79
117 141 171 167 28 13 105 35 172 49 138 27 227 65 298 127 80 71 109 159 67
210 -17 21 -27 24 -83 22 -291 -12 -665 147 -778 331 -103 167 -132 206 -186
254 -109 98 -252 169 -440 217 -113 28 -105 27 -123 16z"/>
<path d="M10551 2745 c-200 -98 -352 -228 -420 -363 -12 -24 -36 -82 -52 -130
-47 -133 -87 -200 -169 -283 -141 -142 -329 -244 -535 -288 -65 -14 -83 -22
-94 -43 -13 -22 -12 -30 9 -72 57 -120 243 -196 449 -184 93 6 181 -6 230 -32
21 -10 68 -46 106 -81 117 -106 229 -138 320 -94 48 24 78 67 108 154 21 64
22 77 22 506 0 429 1 442 23 528 29 108 83 245 123 310 31 51 35 68 19 98 -15
28 -36 24 -139 -26z"/>
<path d="M3281 1120 c-168 -85 -320 -212 -386 -324 -35 -60 -58 -159 -50 -215
6 -40 17 -55 85 -123 64 -64 83 -78 109 -78 48 0 92 22 132 67 44 49 329 617
329 656 0 34 -19 35 -50 2 -29 -30 -45 -33 -30 -4 16 29 4 69 -19 69 -11 0
-64 -23 -120 -50z"/>
</g>
</svg>
